<svg width="155" height="37" viewBox="0 0 155 37" fill="none" xmlns="http://www.w3.org/2000/svg">
<g clip-path="url(#clip0)">
<path fill-rule="evenodd" clip-rule="evenodd" d="M-0.000163892 34.9138H8.67935V22.6694C8.67935 17.8769 8.67955 9.06817 15.7379 9.06817C17.0704 9.00789 18.3995 9.25143 19.6241 9.7804V1.03564C18.7553 0.825473 17.861 0.738896 16.9681 0.778496C11.7869 0.778496 8.22342 6.02248 7.8335 9.13216H7.70559V1.55713H-0.00134277L-0.000163892 34.9138Z" fill="white"/>
<path fill-rule="evenodd" clip-rule="evenodd" d="M55.6349 1.55737H46.9519V17.8772C46.9519 22.1542 45.5937 28.9554 39.3104 28.9554C33.7417 28.9554 33.6741 23.4483 33.6741 19.3668V1.55737H24.9946V22.6069C24.9946 30.1179 28.4263 35.689 36.3272 35.689C38.4354 35.6912 40.517 35.2142 42.4138 34.294C44.3106 33.3738 45.9734 32.0346 47.2767 30.3775H47.4081V34.914H55.6361L55.6349 1.55737Z" fill="white"/>
<path fill-rule="evenodd" clip-rule="evenodd" d="M64.4341 34.9136H73.1148V18.7182C73.1148 14.3796 73.825 7.51197 79.588 7.51197C84.5785 7.51197 84.5782 11.9158 84.5782 15.0291V34.9136H93.2578V18.7182C93.2578 14.3796 93.9667 7.51197 99.7333 7.51197C104.719 7.51197 104.719 11.9158 104.719 15.0291V34.9136H113.4V13.8617C113.4 6.41346 111.061 0.778349 102.84 0.778349C100.727 0.700672 98.6345 1.2105 96.7938 2.25112C94.9532 3.29175 93.4371 4.82242 92.4143 6.673C90.5323 2.52514 87.2304 0.778349 82.5671 0.778349C80.5913 0.778491 78.6475 1.27705 76.9155 2.22786C75.1835 3.17867 73.7194 4.55102 72.6586 6.21789H72.5283V1.55698H64.4329L64.4341 34.9136Z" fill="white"/>
<path fill-rule="evenodd" clip-rule="evenodd" d="M142.402 9.15029L140.15 11.0661C138.381 10.2758 136.465 9.8685 134.527 9.87097C132.437 9.89101 130.377 10.3776 128.499 11.2951C126.62 12.2126 124.969 13.538 123.668 15.1746C122.366 16.8111 121.447 18.7176 120.976 20.7548C120.506 22.792 120.495 24.9085 120.947 26.9501C119.481 24.3093 118.721 21.3353 118.74 18.3152C118.74 9.72975 123.932 2.77039 131.833 2.77039C133.995 2.83313 136.104 3.45346 137.956 4.57126C139.808 5.68905 141.339 7.26637 142.402 9.15029Z" fill="white"/>
<path fill-rule="evenodd" clip-rule="evenodd" d="M155 16.8544C155 22.0151 152.039 25.9493 147.342 28.0884L143.358 22.3169C144.792 20.1187 145.556 17.5504 145.556 14.9254C145.479 11.1434 143.904 7.54664 141.177 4.92563C138.449 2.30462 134.792 0.873751 131.01 0.947491H130.897C132.769 0.369522 134.71 0.0502902 136.669 -0.00134277C146.794 -0.000135599 155 8.34989 155 16.8544Z" fill="white"/>
<path fill-rule="evenodd" clip-rule="evenodd" d="M153.386 25.7864C151.125 31.3177 144.625 36.4325 136.55 36.4325C127.959 36.4325 122.275 30.638 122.275 23.4988C122.277 21.7859 122.678 20.0971 123.447 18.5663L129.38 19.8845C130.225 26.1232 136.609 30.7913 142.953 30.7913C144.938 30.696 146.884 30.204 148.676 29.3444C150.468 28.4848 152.069 27.275 153.386 25.7864Z" fill="white"/>
</g>
<defs>
<clipPath id="clip0">
<rect width="155" height="36.4325" fill="white"/>
</clipPath>
</defs>
</svg>
